<svg xmlns="http://www.w3.org/2000/svg" width="24" height="24" fill="none"><g clip-path="url(#a)"><path fill="#325FEC" d="M3.244 5.395 5.74 2.902a1.894 1.894 0 0 1 2.688 0l2.686 2.686a1.896 1.896 0 0 1 0 2.688L9.15 10.24a9.2 9.2 0 0 0 1.887 2.72 9.3 9.3 0 0 0 2.72 1.895l1.965-1.964a1.896 1.896 0 0 1 2.688 0l2.688 2.683a1.897 1.897 0 0 1 0 2.69l-2.491 2.492a3.08 3.08 0 0 1-2.67.858c-3.159-.52-6.292-2.2-8.821-4.727-2.527-2.524-4.205-5.656-4.732-8.824a3.09 3.09 0 0 1 .86-2.668"/></g><defs><clipPath id="a"><path fill="#fff" d="M24 0H0v24h24z"/></clipPath></defs></svg>