<svg xmlns="http://www.w3.org/2000/svg" width="34" height="34" fill="none"><rect width="34" height="34" fill="#fff" rx="17"/><g clip-path="url(#a)"><path fill="#192031" d="M26 11.704a7.7 7.7 0 0 1-2.121.554 3.56 3.56 0 0 0 1.624-1.946 7.6 7.6 0 0 1-2.346.854 3.78 3.78 0 0 0-2.695-1.111c-2.04 0-3.693 1.575-3.693 3.518q0 .415.096.802c-3.07-.147-5.79-1.548-7.612-3.676-.318.52-.5 1.124-.5 1.768 0 1.221.652 2.298 1.643 2.929a3.8 3.8 0 0 1-1.673-.44V15c0 1.704 1.273 3.127 2.962 3.45a3.9 3.9 0 0 1-1.668.06c.47 1.398 1.834 2.415 3.45 2.443a7.65 7.65 0 0 1-4.586 1.506q-.447 0-.881-.049a10.83 10.83 0 0 0 5.66 1.58c6.793 0 10.508-5.36 10.508-10.01a10 10 0 0 0-.01-.454A7.3 7.3 0 0 0 26 11.704"/></g><defs><clipPath id="a"><path fill="#fff" d="M8 10h18v14H8z"/></clipPath></defs></svg>