<svg xmlns="http://www.w3.org/2000/svg" width="34" height="34" fill="none"><rect width="34" height="34" fill="#fff" rx="17"/><g clip-path="url(#a)"><path fill="#192031" d="M17.003 12.957c-2.271 0-4.103 1.804-4.103 4.04s1.832 4.04 4.103 4.04 4.104-1.804 4.104-4.04-1.832-4.04-4.104-4.04m0 6.666c-1.467 0-2.667-1.178-2.667-2.626 0-1.449 1.196-2.626 2.667-2.626 1.472 0 2.668 1.177 2.668 2.626s-1.2 2.626-2.668 2.626m5.229-6.83a.95.95 0 0 1-.957.941.95.95 0 0 1-.957-.942.95.95 0 0 1 .957-.942.95.95 0 0 1 .957.942m2.718.955c-.06-1.262-.354-2.38-1.293-3.3-.936-.922-2.071-1.21-3.354-1.273-1.321-.074-5.282-.074-6.603 0-1.279.06-2.414.348-3.354 1.269-.939.92-1.228 2.039-1.293 3.3-.075 1.302-.075 5.2 0 6.501.061 1.262.354 2.38 1.293 3.301.94.922 2.072 1.21 3.354 1.273 1.321.074 5.282.074 6.603 0 1.283-.06 2.418-.348 3.354-1.273.936-.92 1.229-2.039 1.293-3.3.075-1.302.075-5.197 0-6.498m-1.707 7.893a2.68 2.68 0 0 1-1.522 1.498c-1.053.41-3.553.316-4.718.316-1.164 0-3.667.091-4.717-.316a2.68 2.68 0 0 1-1.522-1.498c-.418-1.037-.321-3.498-.321-4.644s-.093-3.61.321-4.644a2.68 2.68 0 0 1 1.522-1.498c1.053-.411 3.553-.316 4.717-.316 1.165 0 3.668-.092 4.718.316.7.274 1.24.805 1.522 1.498.418 1.037.321 3.498.321 4.644s.097 3.61-.321 4.644"/></g><defs><clipPath id="a"><path fill="#fff" d="M9 8h16v18H9z"/></clipPath></defs></svg>