<svg xmlns="http://www.w3.org/2000/svg" width="34" height="34" fill="none"><rect width="34" height="34" fill="#fff" rx="17"/><g clip-path="url(#a)"><path fill="#192031" d="M12.633 24V13.88h-3.43V24zm-1.715-11.503c1.196 0 1.94-.777 1.94-1.748C12.838 9.756 12.115 9 10.942 9S9 9.756 9 10.749c0 .97.744 1.748 1.895 1.748zM14.532 24h3.43v-5.652c0-.302.022-.604.113-.82.248-.605.812-1.23 1.76-1.23 1.24 0 1.738.927 1.738 2.288V24h3.43v-5.803c0-3.109-1.693-4.555-3.95-4.555-1.85 0-2.663 1.014-3.114 1.705h.023V13.88h-3.43c.045.95 0 10.12 0 10.12z"/></g><defs><clipPath id="a"><path fill="#fff" d="M9 9h16v15H9z"/></clipPath></defs></svg>