<svg xmlns="http://www.w3.org/2000/svg" width="24" height="24" fill="none"><path fill="#000" d="M11.999 7.377a4.624 4.624 0 1 0 0 9.248 4.624 4.624 0 0 0 0-9.248m0 7.627a3.004 3.004 0 1 1 0-6.008 3.004 3.004 0 0 1 0 6.008M16.805 8.285a1.078 1.078 0 1 0 0-2.156 1.078 1.078 0 0 0 0 2.156"/><path fill="#000" d="M20.535 6.11a4.6 4.6 0 0 0-2.633-2.632 6.6 6.6 0 0 0-2.186-.42c-.963-.042-1.268-.054-3.71-.054s-2.755 0-3.71.054a6.6 6.6 0 0 0-2.184.42A4.6 4.6 0 0 0 3.479 6.11a6.6 6.6 0 0 0-.42 2.186c-.042.962-.055 1.267-.055 3.71s0 2.753.056 3.71c.015.748.156 1.486.419 2.187a4.6 4.6 0 0 0 2.634 2.632 6.6 6.6 0 0 0 2.185.45c.963.042 1.268.055 3.71.055s2.755 0 3.71-.055a6.6 6.6 0 0 0 2.186-.42 4.61 4.61 0 0 0 2.633-2.632c.263-.7.404-1.438.419-2.186.043-.962.056-1.267.056-3.71s0-2.753-.056-3.71a6.6 6.6 0 0 0-.421-2.217m-1.218 9.532a5 5 0 0 1-.311 1.688 2.99 2.99 0 0 1-1.712 1.71c-.535.2-1.1.305-1.67.312-.95.044-1.218.055-3.654.055-2.438 0-2.687 0-3.655-.055a5 5 0 0 1-1.67-.311 2.99 2.99 0 0 1-1.718-1.711 5.1 5.1 0 0 1-.311-1.67c-.043-.95-.053-1.217-.053-3.653s0-2.686.053-3.655a5 5 0 0 1 .31-1.687c.306-.79.93-1.41 1.72-1.712a5 5 0 0 1 1.669-.311c.95-.043 1.218-.055 3.655-.055s2.687 0 3.654.055a5 5 0 0 1 1.67.31 3 3 0 0 1 1.712 1.713c.197.535.302 1.1.31 1.669.044.95.055 1.218.055 3.655s0 2.698-.043 3.654z"/></svg>