<svg xmlns="http://www.w3.org/2000/svg" width="24" height="24" fill="none"><path fill="#000" fill-rule="evenodd" d="M9.429 8.969h3.714v1.85c.535-1.064 1.907-2.02 3.968-2.02 3.951 0 4.889 2.118 4.889 6.004V22h-4v-6.312c0-2.213-.535-3.461-1.897-3.461-1.889 0-2.674 1.345-2.674 3.46V22h-4zM2.57 21.829h4V8.8h-4zM7.143 4.55a2.53 2.53 0 0 1-.753 1.803 2.59 2.59 0 0 1-3.638.001A2.55 2.55 0 0 1 2 4.55c0-.677.27-1.325.753-1.803a2.583 2.583 0 0 1 3.637 0c.482.478.753 1.126.753 1.803" clip-rule="evenodd"/></svg>