<svg id="Layer_1" data-name="Layer 1" xmlns="http://www.w3.org/2000/svg" xmlns:xlink="http://www.w3.org/1999/xlink" viewBox="0 0 1000 1000"><defs><style>.cls-1{fill:none;}.cls-2,.cls-5{fill:#508fff;}.cls-3,.cls-4{fill:#325fec;}.cls-4,.cls-5{font-size:123.43865px;font-family:AstronomusRegular, Astronomus;}.cls-6{clip-path:url(#clip-path);}.cls-7{clip-path:url(#clip-path-2);}.cls-8{fill:#e8e9ed;}.cls-9{fill:url(#New_Pattern);}</style><clipPath id="clip-path"><rect class="cls-1" x="1079.72293" width="1000" height="1000"/></clipPath><clipPath id="clip-path-2"><rect class="cls-1" x="963.36624" y="-20.15405" width="1232.71338" height="1038.83677"/></clipPath><pattern id="New_Pattern" data-name="New Pattern" width="120.74526" height="74.74561" patternTransform="translate(2035.42288 -1165.55311) scale(2.83247 2.72397)" patternUnits="userSpaceOnUse" viewBox="0 0 120.745 74.746"><rect class="cls-1" width="120.74526" height="74.74561"/><polygon class="cls-2" points="117.768 54.563 118.013 84.77 142.433 69.977 117.768 54.563"/><polygon class="cls-3" points="116.494 54.563 116.652 84.77 90.757 69.666 116.494 54.563"/><polygon class="cls-2" points="90.559 70.751 90.559 101.597 116.204 86.168 90.559 70.751"/><polygon class="cls-2" points="90.72 37.373 90.559 68.223 115.853 53.544 90.72 37.373"/><polygon class="cls-2" points="-2.978 54.563 -2.732 84.77 21.688 69.977 -2.978 54.563"/><polygon class="cls-2" points="117.768 -20.183 118.013 10.024 142.433 -4.769 117.768 -20.183"/><polygon class="cls-3" points="116.494 -20.183 116.652 10.024 90.757 -5.079 116.494 -20.183"/><polygon class="cls-2" points="90.559 -3.995 90.559 26.851 116.204 11.422 90.559 -3.995"/><polygon class="cls-2" points="116.657 20.411 116.496 51.261 141.79 36.582 116.657 20.411"/><polygon class="cls-2" points="57.395 17.19 57.641 47.397 82.061 32.604 57.395 17.19"/><polygon class="cls-3" points="56.121 17.19 56.279 47.397 30.384 32.293 56.121 17.19"/><polygon class="cls-2" points="30.186 33.378 30.186 64.224 55.831 48.795 30.186 33.378"/><polygon class="cls-2" points="30.348 0 30.186 30.85 55.48 16.172 30.348 0"/><polygon class="cls-2" points="56.285 57.783 56.123 88.634 81.417 73.955 56.285 57.783"/><polygon class="cls-2" points="-2.978 -20.183 -2.732 10.024 21.688 -4.769 -2.978 -20.183"/><polygon class="cls-2" points="-4.088 20.411 -4.249 51.261 21.045 36.582 -4.088 20.411"/><polygon class="cls-2" points="56.285 -16.962 56.123 13.888 81.417 -0.791 56.285 -16.962"/></pattern></defs><polygon class="cls-2" points="114.593 461.458 115.227 539.479 178.299 501.271 114.593 461.458"/><polygon class="cls-3" points="111.302 461.458 111.71 539.479 44.829 500.469 111.302 461.458"/><polygon class="cls-2" points="44.318 503.27 44.318 582.94 110.554 543.089 44.318 503.27"/><polygon class="cls-2" points="44.734 417.06 44.318 496.742 109.647 458.829 44.734 417.06"/><text class="cls-4" transform="translate(202.95154 542.63547)">22</text><text class="cls-5" transform="translate(391.82068 542.63645)">Signals</text><g class="cls-6"><g class="cls-7"><rect class="cls-8" x="967.03503" y="-20.15405" width="1229.04459" height="1040.3081"/><rect class="cls-9" x="897.32803" y="-56.98527" width="1819.71975" height="1180.50216"/></g></g></svg>