<svg xmlns="http://www.w3.org/2000/svg" width="24" height="24" fill="none"><path fill="#000" d="M22 5.012a8 8 0 0 1-2.357.676 4.28 4.28 0 0 0 1.804-2.374c-.805.5-1.686.852-2.605 1.041A4.02 4.02 0 0 0 15.847 3c-2.266 0-4.104 1.922-4.104 4.292q.001.505.107.978c-3.41-.18-6.434-1.888-8.458-4.484a4.4 4.4 0 0 0-.555 2.157c0 1.49.724 2.803 1.825 3.572a3.95 3.95 0 0 1-1.858-.537v.054c0 2.08 1.414 3.814 3.29 4.209a3.9 3.9 0 0 1-1.852.073c.522 1.705 2.037 2.946 3.833 2.98A8 8 0 0 1 2 18.073 11.25 11.25 0 0 0 8.29 20c7.547 0 11.674-6.54 11.674-12.21q0-.28-.011-.556A8.6 8.6 0 0 0 22 5.012"/></svg>