<svg xmlns="http://www.w3.org/2000/svg" width="32" height="45" fill="none"><path fill="#000" stroke="#F0F1FA" stroke-linecap="round" stroke-linejoin="round" stroke-width="1.5" d="M13.607 15.8V5.265C8.717 6.261 5.036 10.6 5.036 15.8v12.9c0 5.937 4.797 10.75 10.714 10.75s10.714-4.813 10.714-10.75V15.8c0-5.2-3.68-9.539-8.571-10.535V15.8c0 1.187-.96 2.15-2.143 2.15a2.146 2.146 0 0 1-2.143-2.15M30.75 28.7c0 8.312-6.716 15.05-15 15.05s-15-6.738-15-15.05V15.8C.75 7.488 7.466.75 15.75.75s15 6.738 15 15.05z"/></svg>