<svg xmlns="http://www.w3.org/2000/svg" width="1735" height="605" fill="none"><path fill="url(#a)" d="M0 563V340.859c0-22.74 21.714-41.174 48.5-41.174h1638c24.02 0 43.5-16.535 43.5-36.93V41.175c0-20.396-19.48-36.93-43.5-36.93h-38.37V0h38.37c26.79 0 48.5 18.435 48.5 41.175v221.58c0 22.74-21.71 41.174-48.5 41.174H48.5c-24.024 0-43.5 16.534-43.5 36.93V563c0 20.396 19.476 36.93 43.5 36.93h28.249v4.245H48.5C21.714 604.175 0 585.74 0 563" opacity=".8"/><defs><linearGradient id="a" x1="39.624" x2="39.624" y1="2.122" y2="604" gradientUnits="userSpaceOnUse"><stop stop-color="#01002B"/><stop offset=".031" stop-color="#325FEC"/><stop offset=".959" stop-color="#325FEC"/><stop offset="1" stop-color="#01002B"/></linearGradient></defs></svg>